<svg width="266" height="54" viewBox="0 0 266 54" fill="none" xmlns="http://www.w3.org/2000/svg">
<path d="M48.4247 21.4813L48.4831 21.7149H53.6721V0.733398H27.2179C20.1518 0.733398 13.5111 3.48644 8.5139 8.48363C3.51671 13.4808 0.763672 20.1215 0.763672 27.1876C0.763672 34.2538 3.51671 40.8944 8.5139 45.8916C13.5111 50.8888 20.1518 53.6419 27.2179 53.6419H53.6721V32.6687H48.4831L48.4247 32.9023C45.9469 42.0874 37.9631 48.5696 28.5027 49.1119V32.6103L34.3591 38.4668L37.5293 35.2966L29.4287 27.196L37.5293 19.0954L34.3591 15.9252L28.5027 21.7817V5.27175C37.9715 5.81401 45.9553 12.2962 48.4247 21.4813ZM41.9926 5.23003H49.1755V12.413C48.2244 11.0114 47.1316 9.68496 45.9219 8.47529C44.7122 7.26562 43.3858 6.17274 41.9842 5.22169L41.9926 5.23003ZM14.9794 35.2882L18.1495 38.4584L24.006 32.6019V48.9116C15.3381 47.6436 8.297 41.395 6.01114 32.9023C5.70246 31.776 5.4939 30.6081 5.36876 29.4401H20.8275L14.971 35.2966L14.9794 35.2882ZM5.3771 24.9435C5.4939 23.7672 5.7108 22.6076 6.01948 21.4813C8.30534 12.9886 15.3465 6.74004 24.006 5.46363V21.7733L18.1495 15.9168L14.9794 19.087L20.8358 24.9435H5.3771ZM41.9926 49.1452C43.3941 48.1942 44.7206 47.1013 45.9302 45.8916C47.1399 44.682 48.2328 43.3638 49.1838 41.9539V49.1369H42.0009L41.9926 49.1452Z" fill="#FEE407"/>
<path d="M99.7318 31.3923C99.4455 32.9498 98.8372 34.2309 97.9247 35.2023C97.0033 36.182 95.8672 36.9105 94.5432 37.371C93.2013 37.8399 91.7252 38.0744 90.1507 38.0744C86.796 38.0744 84.1749 37.1365 82.3678 35.3028C80.5518 33.4522 79.6303 30.7057 79.6303 27.147C79.6303 23.5883 80.5697 21.1181 82.4125 19.3094C84.2554 17.5008 86.9123 16.5797 90.3118 16.5797C91.7431 16.5797 93.1297 16.7974 94.4358 17.2328C95.724 17.6599 96.8423 18.3632 97.7637 19.3262C98.6762 20.2807 99.2845 21.5703 99.5708 23.1612L99.6155 23.4041H105.001L104.938 23.0607C104.527 20.8585 103.677 18.8991 102.425 17.2496C101.163 15.6 99.4992 14.2853 97.4774 13.3559C95.4557 12.4264 93.0492 11.9575 90.3207 11.9575C87.3059 11.9575 84.5595 12.552 82.162 13.7243C79.7645 14.905 77.8591 16.6634 76.5082 18.9577C75.1663 21.2604 74.4596 24.099 74.4238 27.4149C74.4238 30.7643 75.1216 33.6029 76.5082 35.8554C77.8948 38.1162 79.8003 39.8495 82.162 40.9883C84.5148 42.1271 87.1807 42.6965 90.0971 42.6965C93.0134 42.6965 95.5362 42.2192 97.6116 41.273C99.696 40.3268 101.387 38.9871 102.648 37.2956C103.901 35.6126 104.742 33.6616 105.162 31.4928L105.225 31.1495H99.7765L99.7318 31.3923Z" fill="white"/>
<path d="M122.568 11.9659C119.106 11.9659 116.18 12.6107 113.872 13.8918C111.564 15.1729 109.811 16.99 108.666 19.2927C107.53 21.5786 106.948 24.3084 106.948 27.4066C106.948 32.1125 108.299 35.914 110.947 38.694C113.613 41.4824 117.522 42.9059 122.559 42.9059C125.949 42.9059 128.83 42.2444 131.12 40.9465C133.41 39.6486 135.173 37.8064 136.353 35.4702C137.525 33.1508 138.125 30.4378 138.125 27.4066C138.125 22.7342 136.792 18.9577 134.153 16.1694C131.505 13.3726 127.604 11.9575 122.568 11.9575V11.9659ZM122.514 16.588C124.876 16.588 126.853 17.0486 128.401 17.9697C129.939 18.8824 131.102 20.1635 131.845 21.7712C132.596 23.3957 132.981 25.2965 132.981 27.4233C132.981 29.5502 132.587 31.3923 131.818 33.0168C131.057 34.6245 129.886 35.9056 128.347 36.8183C126.808 37.7311 124.84 38.1916 122.523 38.1916C120.206 38.1916 118.184 37.7227 116.646 36.7932C115.107 35.8638 113.944 34.5743 113.201 32.9666C112.45 31.3421 112.065 29.4748 112.065 27.4233C112.065 24.099 112.96 21.4279 114.722 19.4936C116.476 17.5677 119.097 16.5964 122.523 16.5964L122.514 16.588Z" fill="white"/>
<path d="M161.974 12.4854L152.751 39.0292L143.536 12.4854H137.9L148.716 42.186H156.848L167.663 12.4854H161.974Z" fill="white"/>
<path d="M173.821 12.4854L163.166 42.186H168.695L171.7 33.4944H184.126L187.132 42.186H192.714L181.836 12.4854H173.821ZM182.74 29.5002H173.078L177.909 15.5417L182.74 29.5002Z" fill="white"/>
<path d="M215.122 29.4249C215.122 31.6104 214.773 33.3772 214.075 34.675C213.395 35.9562 212.438 36.8773 211.239 37.4132C210.023 37.9574 208.582 38.2421 206.981 38.2421C205.917 38.2421 204.879 38.083 203.904 37.7649C202.938 37.455 202.079 36.9526 201.345 36.2828C200.612 35.6129 200.012 34.7085 199.565 33.5949C199.118 32.4812 198.894 31.0828 198.894 29.4333V12.4854H193.464V29.4835C193.464 33.7121 194.636 37.0447 196.944 39.3809C199.261 41.7255 202.633 42.9145 206.981 42.9145C211.329 42.9145 214.845 41.7423 217.126 39.4312C219.398 37.1285 220.552 33.7791 220.552 29.4835V12.4854H215.122V29.4333V29.4249Z" fill="white"/>
<path d="M229.806 12.4854H224.6V42.186H246.106V37.8737H229.806V12.4854Z" fill="white"/>
<path d="M240.859 12.4854V16.7893H250.467V42.186H255.683V16.7893H265.237V12.4854H240.859Z" fill="white"/>
</svg>
