<svg width="600" height="301" viewBox="0 0 600 301" fill="none" xmlns="http://www.w3.org/2000/svg">
<path fill-rule="evenodd" clip-rule="evenodd" d="M186.62 175.202C179.442 162.968 179.34 147.803 186.367 135.468L235.503 49.0762C236.16 47.9135 236.868 46.8519 237.626 45.7904L272.911 106.047C280.089 118.281 280.19 133.396 273.163 145.73L224.028 232.173C223.37 233.285 222.663 234.397 221.905 235.408L186.62 175.202ZM237.626 45.7903L222.663 20.2114C215.485 7.97802 202.341 0.496436 188.136 0.597539L88.7021 1.20415C74.4972 1.30526 61.455 8.98905 54.4284 21.3236L5.24199 107.716C-1.73408 120.05 -1.63298 135.216 5.49475 147.449L55.7932 233.234C62.921 245.468 76.1148 253 90.2692 252.899L189.754 252.242C202.594 252.141 214.575 245.822 221.905 235.408L236.868 260.987C244.046 273.22 257.189 280.651 271.394 280.651L370.828 279.994C385.033 279.893 398.076 272.26 405.102 259.925L454.289 173.483C461.265 161.148 461.164 146.033 454.036 133.8L403.737 47.964C396.61 35.7306 383.416 28.249 369.211 28.3501L269.776 28.9567C256.936 29.0578 244.956 35.3767 237.626 45.7903Z" fill="url(#paint0_linear_73_1000)"/>
<defs>
<linearGradient id="paint0_linear_73_1000" x1="-27.6733" y1="2.44664" x2="512.564" y2="291.067" gradientUnits="userSpaceOnUse">
<stop stop-color="#EAC0FB"/>
<stop offset="1" stop-color="#5F47F8"/>
</linearGradient>
</defs>
</svg>
