<svg width="1869" height="301" viewBox="0 0 1869 301" fill="none" xmlns="http://www.w3.org/2000/svg">
<path fill-rule="evenodd" clip-rule="evenodd" d="M186.62 175.202C179.442 162.968 179.34 147.803 186.367 135.468L235.503 49.0762C236.16 47.9135 236.868 46.8519 237.626 45.7904L272.911 106.047C280.089 118.281 280.19 133.396 273.163 145.73L224.028 232.173C223.37 233.285 222.663 234.397 221.905 235.408L186.62 175.202ZM237.626 45.7903L222.663 20.2114C215.485 7.97802 202.341 0.496436 188.136 0.597539L88.7021 1.20415C74.4972 1.30526 61.455 8.98905 54.4284 21.3236L5.24199 107.716C-1.73408 120.05 -1.63298 135.216 5.49475 147.449L55.7932 233.234C62.921 245.468 76.1148 253 90.2692 252.899L189.754 252.242C202.594 252.141 214.575 245.822 221.905 235.408L236.868 260.987C244.046 273.22 257.189 280.651 271.394 280.651L370.828 279.994C385.033 279.893 398.076 272.26 405.102 259.925L454.289 173.483C461.265 161.148 461.164 146.033 454.036 133.8L403.737 47.964C396.61 35.7306 383.416 28.249 369.211 28.3501L269.776 28.9567C256.936 29.0578 244.956 35.3767 237.626 45.7903Z" fill="url(#paint0_linear_73_1000)"/>
<path d="M588.962 241.575V47.2257H620.058V216.032H713.346V241.575H588.962Z" fill="white"/>
<path d="M727.226 168.833C727.226 143.845 733.704 124.965 746.661 112.194C759.617 99.2373 776.831 92.759 798.302 92.759C843.65 92.759 866.324 119.783 866.324 173.831V177.44H756.933C758.044 192.433 762.394 203.908 769.982 211.868C777.756 219.641 787.844 223.528 800.246 223.528C817.83 223.528 829.768 216.032 836.061 201.039L864.381 202.983C860.494 216.125 852.998 226.397 841.892 233.801C830.971 241.205 817.089 244.907 800.246 244.907C777.849 244.907 760.08 238.521 746.938 225.75C733.796 212.978 727.226 194.006 727.226 168.833ZM757.211 158.005H836.894C836.339 144.308 832.637 133.572 825.789 125.798C818.94 118.024 809.778 114.137 798.302 114.137C786.826 114.137 777.386 117.839 769.982 125.243C762.764 132.647 758.507 143.568 757.211 158.005Z" fill="white"/>
<path d="M894.698 241.575V96.0907H922.185V123.022C931.439 102.847 948.561 92.759 973.548 92.759C989.837 92.759 1002.24 97.3864 1010.75 106.641C1019.27 115.711 1023.52 129.13 1023.52 146.899V241.575H993.816V156.339C993.816 130.241 983.451 117.192 962.72 117.192C950.504 117.192 941.064 121.264 934.401 129.408C927.738 137.367 924.406 148.38 924.406 162.447V241.575H894.698Z" fill="white"/>
<path d="M1067.9 224.639C1056.61 210.942 1050.96 192.34 1050.96 168.833C1050.96 145.326 1056.61 126.816 1067.9 113.305C1079.37 99.6075 1094.18 92.759 1112.32 92.759C1122.69 92.759 1132.03 95.2578 1140.36 100.255C1148.69 105.253 1155.35 112.286 1160.35 121.356V37.2305H1190.06V241.575H1162.57V211.868C1157.76 222.418 1150.91 230.562 1142.03 236.3C1133.14 242.038 1123.15 244.907 1112.04 244.907C1094.09 244.907 1079.37 238.151 1067.9 224.639ZM1091.22 130.518C1084 140.143 1080.39 152.915 1080.39 168.833C1080.39 184.751 1084 197.523 1091.22 207.148C1098.62 216.773 1108.53 221.585 1120.93 221.585C1133.51 221.585 1143.42 216.773 1150.63 207.148C1158.04 197.523 1161.74 184.751 1161.74 168.833C1161.74 152.915 1158.04 140.143 1150.63 130.518C1143.42 120.893 1133.51 116.081 1120.93 116.081C1108.53 116.081 1098.62 120.893 1091.22 130.518Z" fill="white"/>
<path d="M1241.28 76.3781C1241.28 60.645 1244.61 49.6319 1251.27 43.3387C1258.12 37.0454 1268.48 33.8988 1282.37 33.8988C1288.66 33.8988 1295.32 34.3616 1302.36 35.287V57.7761C1295.69 57.4059 1291.34 57.2208 1289.31 57.2208C1282.46 57.2208 1277.65 58.8866 1274.87 62.2183C1272.28 65.365 1270.98 71.288 1270.98 79.9874V96.0907H1302.36V118.58H1270.98V241.575H1241.28V118.58H1213.79V96.0907H1241.28V76.3781ZM1328.46 40.5622H1359.83V73.6017H1328.46V40.5622ZM1329.29 241.575V96.0907H1359V241.575H1329.29Z" fill="white"/>
<path d="M1396.03 241.575V96.0907H1423.51V123.022C1432.77 102.847 1449.89 92.759 1474.88 92.759C1491.17 92.759 1503.57 97.3864 1512.08 106.641C1520.6 115.711 1524.85 129.13 1524.85 146.899V241.575H1495.15V156.339C1495.15 130.241 1484.78 117.192 1464.05 117.192C1451.83 117.192 1442.39 121.264 1435.73 129.408C1429.07 137.367 1425.73 148.38 1425.73 162.447V241.575H1396.03Z" fill="white"/>
<path d="M1559.51 73.6017V40.5622H1590.88V73.6017H1559.51ZM1560.34 241.575V96.0907H1590.05V241.575H1560.34Z" fill="white"/>
<path d="M1709.21 118.58H1673.95V196.875C1673.95 205.574 1675.15 211.497 1677.56 214.644C1680.15 217.791 1685.05 219.364 1692.27 219.364C1697.09 219.364 1702.73 218.901 1709.21 217.976V241.853C1700.88 243.149 1693.38 243.796 1686.72 243.796C1671.54 243.796 1660.62 240.65 1653.96 234.357C1647.48 227.878 1644.24 216.958 1644.24 201.595V118.58H1613.98V96.646H1636.74C1640.08 96.646 1642.39 95.9981 1643.69 94.7025C1645.17 93.2217 1645.91 90.908 1645.91 87.7614V63.6066H1673.95V96.0907H1709.21V118.58Z" fill="white"/>
<path d="M1837.35 96.0907H1869L1817.36 256.29C1812.55 273.134 1806.35 284.702 1798.76 290.996C1791.17 297.289 1779.69 300.435 1764.33 300.435C1758.59 300.435 1752.67 300.065 1746.56 299.325V276.558C1753.96 276.928 1759.24 277.113 1762.39 277.113C1770.16 277.113 1776.08 275.355 1780.16 271.838C1784.23 268.507 1787.65 262.028 1790.43 252.403L1793.76 241.575H1776.55L1723.52 96.0907H1755.45L1800.42 229.637L1837.35 96.0907Z" fill="white"/>
<defs>
<linearGradient id="paint0_linear_73_1000" x1="-27.6733" y1="2.44664" x2="512.564" y2="291.067" gradientUnits="userSpaceOnUse">
<stop stop-color="#EAC0FB"/>
<stop offset="1" stop-color="#5F47F8"/>
</linearGradient>
</defs>
</svg>
